<?xml version="1.0" encoding="UTF-8" standalone="no"?>
<!-- Created with Inkscape (http://www.inkscape.org/) -->

<svg
   xmlns:dc="http://purl.org/dc/elements/1.1/"
   xmlns:cc="http://creativecommons.org/ns#"
   xmlns:rdf="http://www.w3.org/1999/02/22-rdf-syntax-ns#"
   xmlns:svg="http://www.w3.org/2000/svg"
   xmlns="http://www.w3.org/2000/svg"
   xmlns:xlink="http://www.w3.org/1999/xlink"
   xmlns:sodipodi="http://sodipodi.sourceforge.net/DTD/sodipodi-0.dtd"
   xmlns:inkscape="http://www.inkscape.org/namespaces/inkscape"
   id="svg7200"
   sodipodi:docname="off2.svg"
   viewBox="0 0 54.664 54.664"
   version="1.1"
   inkscape:version="0.92.3 (2405546, 2018-03-11)">
  <defs
     id="defs7202">
    <linearGradient
       id="linearGradient6471-2-2">
      <stop
         id="stop6473-1-3"
         style="stop-color:#e8e8e8"
         offset="0" />
      <stop
         id="stop6475-0-0"
         style="stop-color:#cdcdcd"
         offset="1" />
    </linearGradient>
    <linearGradient
       id="linearGradient7308"
       y2="1213.4"
       xlink:href="#linearGradient6471-2-2"
       gradientUnits="userSpaceOnUse"
       x2="1826.6"
       y1="1142.4"
       x1="1922.2"
       inkscape:collect="always" />
    <linearGradient
       inkscape:collect="always"
       xlink:href="#linearGradient6471-2-2"
       id="linearGradient840"
       gradientUnits="userSpaceOnUse"
       x1="1922.2"
       y1="1142.4"
       x2="1826.6"
       y2="1213.4" />
    <linearGradient
       inkscape:collect="always"
       xlink:href="#linearGradient6471-2-2"
       id="linearGradient842"
       gradientUnits="userSpaceOnUse"
       x1="1922.2"
       y1="1142.4"
       x2="1826.6"
       y2="1213.4" />
    <linearGradient
       inkscape:collect="always"
       xlink:href="#linearGradient6471-2-2"
       id="linearGradient844"
       gradientUnits="userSpaceOnUse"
       x1="1922.2"
       y1="1142.4"
       x2="1826.6"
       y2="1213.4" />
  </defs>
  <sodipodi:namedview
     id="base"
     bordercolor="#666666"
     inkscape:pageshadow="2"
     inkscape:window-y="27"
     fit-margin-left="0"
     pagecolor="#ffffff"
     inkscape:window-height="845"
     inkscape:window-maximized="1"
     inkscape:zoom="6.213771"
     inkscape:window-x="0"
     showgrid="false"
     borderopacity="1.0"
     inkscape:current-layer="layer1"
     inkscape:cx="29.327871"
     inkscape:cy="20.560312"
     fit-margin-top="0"
     fit-margin-right="0"
     fit-margin-bottom="0"
     inkscape:window-width="1600"
     inkscape:pageopacity="0.0"
     inkscape:document-units="px" />
  <g
     id="layer1"
     inkscape:label="Layer 1"
     inkscape:groupmode="layer"
     transform="translate(-45.868 -45.101)">
    <circle
       id="path6205-3-7"
       style="fill:#d10000;stroke-width:0.37033001;fill-opacity:1"
       cx="73.201843"
       cy="72.436684"
       r="27.331835" />
    <g
       id="g6466-9-2"
       style="fill:url(#linearGradient7308)"
       transform="matrix(0.37033,0,0,0.37033,-621.08498,-363.9252)">
      <path
         id="path6416-2-7"
         d="m 1836.9,1146.2 c 5.5558,-5.1974 11.75,-9.6886 18.568,-12.694 5.7368,-2.5385 11.943,-4.0186 18.172,-4.2078 6.3535,-0.2316 12.69,0.8984 18.834,2.9425 l -0.9609,2.9321 c 6.0533,-0.019 12.502,0.8659 18.869,2.4277 -4.3196,-4.981 -9.2979,-9.7474 -15.143,-13.798 l -0.8007,2.4434 c -6.7336,-2.1882 -13.796,-3.4053 -21.007,-3.2046 -7.0821,0.2425 -14.062,1.9161 -20.494,4.7854 -7.596,3.4035 -14.354,8.2918 -20.268,13.885 z"
         style="fill:url(#linearGradient840)"
         inkscape:connector-curvature="0" />
      <path
         id="path6416-8-7-3"
         d="m 1923.6,1164.5 c 1.2425,7.5059 1.5435,15.15 0.2611,22.491 -1.0702,6.1813 -3.2814,12.166 -6.5792,17.454 -3.3319,5.4147 -7.7872,10.06 -12.896,14.038 l -1.9066,-2.4261 c -3.3421,5.047 -7.6555,9.9216 -12.487,14.353 6.5405,-0.8308 13.268,-2.329 19.88,-4.9456 l -1.5889,-2.0216 c 5.556,-4.3886 10.486,-9.5897 14.32,-15.701 3.7268,-6.0271 6.2062,-12.763 7.3867,-19.706 1.3818,-8.2081 1.0636,-16.543 -0.3101,-24.566 z"
         style="fill:url(#linearGradient842)"
         inkscape:connector-curvature="0" />
      <path
         id="path6416-8-2-2-0"
         d="m 1864.7,1227.9 c -7.209,-2.4313 -14.098,-5.7588 -19.975,-10.341 -4.9529,-3.85 -9.1963,-8.6148 -12.313,-14.011 -3.2132,-5.4859 -5.2197,-11.602 -6.3293,-17.98 l 3.0376,-0.5426 c -2.884,-5.3221 -5.1591,-11.42 -6.7995,-17.768 -2.3409,6.1635 -4.1805,12.806 -4.9789,19.872 l 2.5311,-0.4522 c 1.2623,6.9667 3.5356,13.763 7.1279,20.019 3.5682,6.1224 8.3482,11.477 13.922,15.782 6.5954,5.0777 14.102,8.7144 21.829,11.273 z"
         style="fill:url(#linearGradient844)"
         inkscape:connector-curvature="0" />
    </g>
  </g>
  <metadata
     id="metadata29">
    <rdf:RDF>
      <cc:Work>
        <dc:format>image/svg+xml</dc:format>
        <dc:type
           rdf:resource="http://purl.org/dc/dcmitype/StillImage" />
        <cc:license
           rdf:resource="http://creativecommons.org/licenses/publicdomain/" />
        <dc:publisher>
          <cc:Agent
             rdf:about="http://openclipart.org/">
            <dc:title>Openclipart</dc:title>
          </cc:Agent>
        </dc:publisher>
        <dc:title></dc:title>
        <dc:date>2013-02-14T10:31:23</dc:date>
        <dc:description>Stop button with three arrows</dc:description>
        <dc:source>https://openclipart.org/detail/175117/emergency-off-by-twx-175117</dc:source>
        <dc:creator>
          <cc:Agent>
            <dc:title>TWX</dc:title>
          </cc:Agent>
        </dc:creator>
        <dc:subject>
          <rdf:Bag>
            <rdf:li>Arrêt</rdf:li>
            <rdf:li>Botón</rdf:li>
            <rdf:li>Bouton</rdf:li>
            <rdf:li>Button</rdf:li>
            <rdf:li>Emergency</rdf:li>
            <rdf:li>Interruptor</rdf:li>
            <rdf:li>Off</rdf:li>
            <rdf:li>Red</rdf:li>
            <rdf:li>Switch</rdf:li>
            <rdf:li>arrêtez</rdf:li>
            <rdf:li>d'urgence</rdf:li>
            <rdf:li>emergencia</rdf:li>
            <rdf:li>rojo</rdf:li>
            <rdf:li>rouge</rdf:li>
          </rdf:Bag>
        </dc:subject>
      </cc:Work>
      <cc:License
         rdf:about="http://creativecommons.org/licenses/publicdomain/">
        <cc:permits
           rdf:resource="http://creativecommons.org/ns#Reproduction" />
        <cc:permits
           rdf:resource="http://creativecommons.org/ns#Distribution" />
        <cc:permits
           rdf:resource="http://creativecommons.org/ns#DerivativeWorks" />
      </cc:License>
    </rdf:RDF>
  </metadata>
</svg>
