<?xml version="1.0" encoding="UTF-8" standalone="no"?>
<!-- Created with Inkscape (http://www.inkscape.org/) -->

<svg
   xmlns:dc="http://purl.org/dc/elements/1.1/"
   xmlns:cc="http://creativecommons.org/ns#"
   xmlns:rdf="http://www.w3.org/1999/02/22-rdf-syntax-ns#"
   xmlns:svg="http://www.w3.org/2000/svg"
   xmlns="http://www.w3.org/2000/svg"
   xmlns:sodipodi="http://sodipodi.sourceforge.net/DTD/sodipodi-0.dtd"
   xmlns:inkscape="http://www.inkscape.org/namespaces/inkscape"
   width="73"
   height="60"
   viewBox="0 0 19.314585 15.875002"
   version="1.1"
   id="svg3364"
   inkscape:version="0.92.5 (2060ec1f9f, 2020-04-08)"
   sodipodi:docname="success.svg">
  <defs
     id="defs3358" />
  <sodipodi:namedview
     id="base"
     pagecolor="#ffffff"
     bordercolor="#666666"
     borderopacity="1.0"
     inkscape:pageopacity="0.0"
     inkscape:pageshadow="2"
     inkscape:zoom="3.959798"
     inkscape:cx="-10.001668"
     inkscape:cy="19.483845"
     inkscape:document-units="mm"
     inkscape:current-layer="layer1"
     showgrid="false"
     units="px"
     inkscape:window-width="1920"
     inkscape:window-height="1016"
     inkscape:window-x="0"
     inkscape:window-y="27"
     inkscape:window-maximized="1" />
  <metadata
     id="metadata3361">
    <rdf:RDF>
      <cc:Work
         rdf:about="">
        <dc:format>image/svg+xml</dc:format>
        <dc:type
           rdf:resource="http://purl.org/dc/dcmitype/StillImage" />
        <dc:title></dc:title>
      </cc:Work>
    </rdf:RDF>
  </metadata>
  <g
     inkscape:label="Calque 1"
     inkscape:groupmode="layer"
     id="layer1"
     transform="translate(0,-281.12497)">
    <g
       id="g308"
       transform="matrix(0.33995218,0,0,0.33995218,-21.725824,141.56918)">
      <rect
         style="fill:#fab364"
         id="rect274"
         height="39.5"
         width="56.799999"
         y="410.5"
         x="63.799999" />
      <rect
         style="fill:#f47953"
         id="rect276"
         height="39.5"
         width="28.4"
         y="410.5"
         x="92.099998" />
      <rect
         style="fill:#fcf7d7"
         id="rect278"
         height="30.799999"
         width="48"
         y="414.89999"
         x="68.199997" />
      <rect
         style="fill:#eae0b0"
         id="rect280"
         height="30.799999"
         width="24"
         y="414.89999"
         x="92.099998" />
      <g
         id="g292">
        <polygon
           style="fill:#098e8b"
           id="polygon282"
           points="102.4,443.6 100.5,442.9 96.1,454.3 99.9,453.3 100.7,454.5 102,456.6 106.4,445.2 104.5,444.5 " />
        <polygon
           style="fill:#098e8b"
           id="polygon284"
           points="111,453.7 113.4,454.3 109,442.9 107.2,443.6 105,444.4 103.1,445.1 107.5,456.6 108.8,454.5 109.6,453.3 " />
        <path
           style="fill:#c53a57"
           inkscape:connector-curvature="0"
           id="path286"
           d="m 114.1,439.6 c -0.2,-1.2 -1.2,-2.2 -2.3,-2.4 0.4,-1.1 0,-2.4 -0.9,-3.2 -1,-0.8 -2.3,-0.9 -3.3,-0.3 -0.4,-1.1 -1.5,-1.9 -2.8,-1.9 -1.3,0 -2.3,0.8 -2.8,1.9 -1,-0.5 -2.4,-0.5 -3.3,0.4 -1,0.8 -1.3,2.1 -0.9,3.2 -1.2,0.2 -2.1,1.2 -2.3,2.4 -0.2,1.2 0.4,2.4 1.4,3.1 -0.7,0.9 -0.9,2.2 -0.2,3.3 0.6,1.1 1.8,1.6 3,1.5 0,1.2 0.8,2.3 2,2.7 1.2,0.4 2.5,0.1 3.3,-0.8 0.8,0.9 2.1,1.2 3.2,0.8 1.2,-0.4 1.9,-1.5 2,-2.7 1.2,0.2 2.4,-0.4 3,-1.5 0.6,-1.1 0.5,-2.4 -0.2,-3.3 0.7,-0.7 1.3,-1.9 1.1,-3.2 z" />
        <circle
           style="fill:#fcf7d7"
           id="circle288"
           r="6.3000002"
           cy="441.10001"
           cx="104.7" />
        <polygon
           style="fill:#098e8b"
           id="polygon290"
           points="104.7,437.7 105.9,439.5 108,440.1 106.7,441.8 106.8,444 104.7,443.2 102.7,444 102.8,441.8 101.5,440.1 103.5,439.5 " />
      </g>
      <rect
         style="fill:#fab364"
         id="rect294"
         height="1.6"
         width="39.799999"
         y="418.70001"
         x="72.300003" />
      <rect
         style="fill:#f47953"
         id="rect296"
         height="1.6"
         width="20"
         y="418.70001"
         x="92.099998" />
      <rect
         style="fill:#fab364"
         id="rect298"
         height="1.6"
         width="39.799999"
         y="423.60001"
         x="72.300003" />
      <rect
         style="fill:#f47953"
         id="rect300"
         height="1.6"
         width="20"
         y="423.60001"
         x="92.099998" />
      <rect
         style="fill:#fab364"
         id="rect302"
         height="1.6"
         width="39.799999"
         y="428.5"
         x="72.300003" />
      <rect
         style="fill:#f47953"
         id="rect304"
         height="1.6"
         width="20"
         y="428.5"
         x="92.099998" />
      <rect
         style="fill:#fab364"
         id="rect306"
         height="8.1000004"
         width="15.5"
         y="433"
         x="72.300003" />
    </g>
  </g>
</svg>
